<?xml version="1.0" standalone="no"?>
<!DOCTYPE svg PUBLIC "-//W3C//DTD SVG 20010904//EN"
 "http://www.w3.org/TR/2001/REC-SVG-20010904/DTD/svg10.dtd">
<svg version="1.0" xmlns="http://www.w3.org/2000/svg"
 width="500.000000pt" height="500.000000pt" viewBox="0 0 500.000000 500.000000"
 preserveAspectRatio="xMidYMid meet">

<g transform="translate(0.000000,500.000000) scale(0.100000,-0.100000)"
fill="#000000" stroke="none">
<path d="M0 2500 l0 -2500 2500 0 2500 0 0 2500 0 2500 -2500 0 -2500 0 0
-2500z m4030 497 c0 -1593 0 -1636 -20 -1711 -44 -174 -154 -315 -305 -393
-44 -22 -333 -148 -642 -278 l-563 -237 -102 45 c-654 290 -842 373 -953 422
-71 31 -155 72 -186 91 -76 45 -177 155 -217 234 -72 143 -66 -5 -69 1805 -2
896 -1 1635 1 1642 4 11 304 13 1531 13 l1525 0 0 -1633z"/>
<path d="M1044 4548 c-2 -3 -3 -721 -2 -1595 3 -1516 4 -1591 22 -1643 45
-135 119 -237 219 -303 28 -19 243 -119 477 -222 234 -103 494 -218 579 -256
85 -38 158 -69 162 -69 4 0 70 26 146 59 76 32 242 102 368 156 127 54 316
133 420 177 243 102 292 128 355 192 94 95 139 182 160 308 16 100 14 3198 -2
3198 -126 5 -2901 3 -2904 -2z m1496 -215 c33 -45 79 -145 80 -171 0 -7 -6
-12 -12 -11 -7 1 -25 1 -40 0 -25 -1 -27 -4 -30 -53 -3 -49 -5 -53 -28 -53
l-25 0 -3 145 c-3 145 1 190 16 190 5 0 24 -21 42 -47z m-118 -336 c24 -36 80
-51 124 -32 44 18 65 54 73 123 l7 57 8 -50 c7 -44 3 -295 -9 -510 -14 -251
-16 -578 -5 -675 27 -243 94 -467 203 -680 37 -74 73 -139 78 -145 13 -13 132
19 170 46 80 56 93 195 26 268 -30 32 -94 61 -139 61 -21 0 -38 3 -38 8 0 40
103 849 114 896 31 132 112 308 194 418 73 99 152 178 178 178 16 0 24 6 24
16 0 9 8 23 18 31 33 27 135 93 144 93 4 0 8 -596 8 -1325 l0 -1325 -305 0
-304 0 -11 -42 c-21 -86 -74 -214 -121 -294 -53 -90 -175 -225 -257 -286 -29
-21 -62 -54 -74 -72 l-22 -33 -56 56 c-31 31 -88 84 -128 119 -132 116 -234
281 -285 462 l-25 85 -306 3 -306 2 0 1330 0 1330 63 -39 c59 -39 62 -42 59
-77 l-4 -36 47 4 47 3 71 -75 c153 -163 259 -374 296 -585 10 -55 101 -810
101 -835 0 -5 -17 -10 -37 -10 -49 -1 -114 -30 -141 -64 -48 -62 -54 -153 -13
-220 27 -43 107 -84 171 -88 l44 -3 76 150 c87 171 137 313 176 500 26 121 28
147 28 380 1 138 -3 365 -9 505 -13 357 -12 486 5 540 l15 45 5 -91 c3 -62 10
-98 22 -117z"/>
<path d="M1580 3048 l0 -678 53 1 52 0 35 72 c26 52 49 82 86 113 29 23 57 43
63 45 15 5 -61 652 -86 744 -36 130 -110 279 -174 348 l-28 32 -1 -677z"/>
<path d="M3375 3673 c-51 -69 -131 -236 -154 -323 -24 -91 -104 -744 -91 -748
54 -19 148 -125 171 -194 12 -38 13 -38 66 -38 l53 0 0 675 c0 371 -2 675 -5
675 -3 0 -21 -21 -40 -47z"/>
<path d="M2461 2426 c-18 -57 -64 -168 -102 -246 -38 -79 -68 -144 -67 -145 2
-1 29 -14 60 -28 31 -14 77 -44 102 -67 l46 -42 39 35 c45 41 115 83 152 92
l26 6 -66 132 c-36 73 -84 185 -106 249 -22 65 -42 118 -45 118 -3 0 -20 -47
-39 -104z"/>
<path d="M1585 2177 c-3 -7 -4 -130 -3 -275 l3 -262 195 -1 c107 0 201 0 208
0 8 1 12 20 12 59 0 31 7 88 15 127 8 38 11 72 7 76 -4 3 -29 12 -56 18 -117
28 -210 104 -258 209 l-28 62 -45 0 c-28 0 -48 -5 -50 -13z"/>
<path d="M3292 2126 c-53 -113 -116 -166 -240 -202 -42 -12 -77 -26 -77 -30 1
-5 6 -40 13 -79 7 -38 14 -94 15 -122 1 -29 4 -53 7 -53 3 0 95 -1 205 -2
l200 -1 0 274 0 274 -47 1 -47 2 -29 -62z"/>
<path d="M2206 1845 c-11 -29 -29 -182 -24 -197 4 -9 17 -14 35 -13 15 1 65 3
111 3 95 2 97 5 58 87 -28 59 -66 98 -118 119 -46 20 -54 20 -62 1z"/>
<path d="M2735 1846 c-72 -31 -129 -105 -137 -175 l-3 -34 110 1 110 1 -1 68
c-2 79 -20 153 -37 153 -7 -1 -25 -7 -42 -14z"/>
<path d="M2200 1447 c0 -13 52 -151 70 -187 26 -52 101 -160 124 -179 15 -12
16 4 16 178 l0 191 -105 0 c-58 0 -105 -1 -105 -3z"/>
<path d="M2590 1258 l0 -191 21 19 c59 53 142 199 173 303 9 30 16 56 16 58 0
2 -47 3 -105 3 l-105 0 0 -192z"/>
</g>
</svg>
